<mxfile host="app.diagrams.net" modified="2023-04-04T10:08:57.350Z" agent="Mozilla/5.0 (Macintosh; Intel Mac OS X 10.15; rv:109.0) Gecko/20100101 Firefox/111.0" etag="zrT6NivIIM2tymNF1n_f" version="21.1.4" type="google">
  <diagram name="Pagina-1" id="kHc6grfsWR8v0Dm2deuV">
    <mxGraphModel grid="1" page="1" gridSize="10" guides="1" tooltips="1" connect="1" arrows="1" fold="1" pageScale="1" pageWidth="827" pageHeight="1169" math="0" shadow="0">
      <root>
        <mxCell id="0" />
        <mxCell id="1" parent="0" />
        <mxCell id="oXL2mV3GlInP6PwhiySE-3" style="edgeStyle=orthogonalEdgeStyle;rounded=0;orthogonalLoop=1;jettySize=auto;html=1;" edge="1" parent="1" source="oXL2mV3GlInP6PwhiySE-1" target="oXL2mV3GlInP6PwhiySE-2">
          <mxGeometry relative="1" as="geometry" />
        </mxCell>
        <mxCell id="oXL2mV3GlInP6PwhiySE-1" value="START" style="ellipse;whiteSpace=wrap;html=1;" vertex="1" parent="1">
          <mxGeometry x="354" y="20" width="120" height="80" as="geometry" />
        </mxCell>
        <mxCell id="oXL2mV3GlInP6PwhiySE-6" value="" style="edgeStyle=orthogonalEdgeStyle;rounded=0;orthogonalLoop=1;jettySize=auto;html=1;" edge="1" parent="1" source="oXL2mV3GlInP6PwhiySE-2" target="oXL2mV3GlInP6PwhiySE-5">
          <mxGeometry relative="1" as="geometry" />
        </mxCell>
        <mxCell id="oXL2mV3GlInP6PwhiySE-2" value="&lt;div&gt;OUTPUT &lt;br&gt;&lt;/div&gt;&lt;div&gt;INSERISCI IL TUO &lt;br&gt;&lt;/div&gt;&lt;div&gt;NOME&lt;br&gt;&lt;/div&gt;" style="shape=parallelogram;perimeter=parallelogramPerimeter;whiteSpace=wrap;html=1;fixedSize=1;" vertex="1" parent="1">
          <mxGeometry x="342" y="150" width="144" height="60" as="geometry" />
        </mxCell>
        <mxCell id="oXL2mV3GlInP6PwhiySE-8" style="edgeStyle=orthogonalEdgeStyle;rounded=0;orthogonalLoop=1;jettySize=auto;html=1;" edge="1" parent="1" source="oXL2mV3GlInP6PwhiySE-5" target="oXL2mV3GlInP6PwhiySE-7">
          <mxGeometry relative="1" as="geometry" />
        </mxCell>
        <mxCell id="oXL2mV3GlInP6PwhiySE-5" value="INPUT NOME" style="shape=parallelogram;perimeter=parallelogramPerimeter;whiteSpace=wrap;html=1;fixedSize=1;" vertex="1" parent="1">
          <mxGeometry x="354" y="250" width="120" height="60" as="geometry" />
        </mxCell>
        <mxCell id="oXL2mV3GlInP6PwhiySE-10" style="edgeStyle=orthogonalEdgeStyle;rounded=0;orthogonalLoop=1;jettySize=auto;html=1;" edge="1" parent="1" source="oXL2mV3GlInP6PwhiySE-7" target="oXL2mV3GlInP6PwhiySE-9">
          <mxGeometry relative="1" as="geometry" />
        </mxCell>
        <mxCell id="oXL2mV3GlInP6PwhiySE-7" value="&lt;div&gt;OUTPUT&lt;/div&gt;&lt;div&gt;CIAO + NOME&lt;br&gt;&lt;/div&gt;" style="shape=parallelogram;perimeter=parallelogramPerimeter;whiteSpace=wrap;html=1;fixedSize=1;" vertex="1" parent="1">
          <mxGeometry x="354" y="360" width="120" height="60" as="geometry" />
        </mxCell>
        <mxCell id="oXL2mV3GlInP6PwhiySE-9" value="END" style="ellipse;whiteSpace=wrap;html=1;" vertex="1" parent="1">
          <mxGeometry x="354" y="460" width="120" height="80" as="geometry" />
        </mxCell>
      </root>
    </mxGraphModel>
  </diagram>
</mxfile>
